<svg width="381" height="370" viewBox="0 0 381 370" fill="none" xmlns="http://www.w3.org/2000/svg">
<g clip-path="url(#clip0_816_27)">
<path d="M61.5977 20.4922C66.1579 21.4561 68.8815 24.722 72 28C73.2279 29.2304 74.457 30.4597 75.6875 31.6875C76.2521 32.2637 76.8167 32.8399 77.3984 33.4336C79.1376 35.1865 79.1376 35.1865 81.8125 37.25C84.2243 39.1794 85.7188 40.8683 86.4766 43.918C87.0353 52.4598 82.911 58.8047 79.0044 66.084C64.535 93.6863 63.2236 127.076 71.8125 156.688C72.5159 158.8 73.2462 160.905 74 163C74.4318 164.201 74.8637 165.403 75.3086 166.641C80.4188 180.331 87.326 191.976 97 203C97.9707 204.17 97.9707 204.17 98.961 205.363C104.039 211.364 109.765 216.232 116 221C116.791 221.607 117.583 222.214 118.398 222.84C130.88 231.983 144.218 237.75 159 242C159.699 242.212 160.398 242.423 161.118 242.642C189.637 251.102 220.737 246.049 247 233C247.711 232.649 248.422 232.298 249.155 231.937C259.246 226.859 267.753 220.689 276 213C277.435 211.687 277.435 211.687 278.898 210.348C290.179 199.589 298.29 186.985 305 173C305.545 171.877 306.091 170.754 306.652 169.598C319.946 139.527 319.235 105.333 307.935 74.8857C305.499 68.7199 302.438 62.9954 298.845 57.4248C295.935 52.7284 295.433 49.53 296 44C299.028 36.4737 310.716 24.6419 318 21C319.953 20.7266 319.953 20.7266 322.25 20.625C322.998 20.576 323.745 20.527 324.516 20.4766C329.764 21.5823 332.872 25.5587 335.711 29.8281C336.613 31.2934 337.501 32.7679 338.375 34.25C338.848 35.0436 339.322 35.8372 339.809 36.6548C359.714 70.5833 366.486 109.118 360 148C359.789 149.313 359.789 149.313 359.574 150.652C354.62 180.338 342.019 208.381 322 231C321.402 231.679 320.805 232.357 320.189 233.056C314.206 239.786 307.944 246.205 301.577 252.568C300.459 253.69 299.341 254.811 298.223 255.932C295.217 258.947 292.209 261.958 289.199 264.968C287.317 266.851 285.435 268.735 283.553 270.62C276.983 277.199 270.41 283.776 263.835 290.351C257.712 296.473 251.594 302.601 245.479 308.732C240.217 314.008 234.95 319.28 229.68 324.549C226.538 327.691 223.397 330.834 220.26 333.982C217.317 336.935 214.369 339.883 211.418 342.827C210.335 343.908 209.255 344.991 208.177 346.075C206.705 347.555 205.228 349.027 203.748 350.499C202.923 351.325 202.098 352.151 201.247 353.001C197.473 356.358 194.276 357.662 189.112 357.492C186.533 356.891 185.41 355.97 183.464 354.184C182.417 353.225 182.417 353.225 181.349 352.246C176.615 347.72 171.96 343.117 167.327 338.488C166.17 337.335 165.012 336.183 163.855 335.031C160.73 331.919 157.609 328.805 154.489 325.689C152.533 323.736 150.577 321.784 148.621 319.832C142.482 313.708 136.346 307.581 130.213 301.452C123.165 294.409 116.111 287.372 109.052 280.342C103.573 274.884 98.0994 269.421 92.6305 263.953C89.3743 260.698 86.1158 257.446 82.8511 254.199C79.7762 251.141 76.7088 248.075 73.6465 245.004C72.531 243.888 71.413 242.774 70.2921 241.663C60.5716 232.024 51.7075 221.751 44.875 209.812C44.2625 208.753 44.2625 208.753 43.6377 207.672C34.3551 191.261 27.6625 173.545 23.6875 155.125C23.528 154.389 23.3685 153.653 23.2041 152.895C20.9297 141.587 20.7292 130.062 20.6875 118.562C20.6849 117.864 20.6823 117.165 20.6796 116.445C20.6747 104.241 22.0195 92.8397 25 81C25.2946 79.6868 25.5864 78.3731 25.875 77.0586C29.5004 61.7964 42.0134 20.0478 61.5977 20.4922Z" fill="#FF0000"/>
<path d="M250.551 47.0157C251.359 47.6705 252.167 48.3253 253 49C253.777 49.6136 254.555 50.2272 255.355 50.8594C270.988 63.882 282.227 84.8958 285 105C285.275 109.795 285.28 114.573 285.25 119.375C285.258 120.613 285.265 121.85 285.273 123.125C285.224 146.661 276.812 167.473 261 185C260.301 185.781 259.603 186.562 258.883 187.367C243.099 204.076 220.187 214.505 197.227 215.238C176.939 215.583 161.64 213.073 144 203C142.979 202.42 141.958 201.84 140.906 201.242C123.815 190.92 112.474 175.752 104 158C103.58 157.129 103.16 156.257 102.727 155.359C93.51 134.432 94.6895 108.677 102.188 87.5C112.164 63.02 129.823 44.6115 153.875 33.75C156.239 32.8063 158.615 31.889 161 31C162.056 30.585 163.111 30.1699 164.199 29.7422C193.27 20.0857 226.81 28.7044 250.551 47.0157Z" fill="#FF0000"/>
</g>
<defs>
<clipPath id="clip0_816_27">
<rect width="381" height="370" fill="white"/>
</clipPath>
</defs>
</svg>
